{
	"asset":{
		"generator":"Khronos glTF Blender I/O v3.6.28",
		"version":"2.0"
	},
	"scene":0,
	"scenes":[
		{
			"name":"Scene",
			"nodes":[
				0
			]
		}
	],
	"nodes":[
		{
			"mesh":0,
			"name":"Cube"
		}
	],
	"materials":[
		{
			"doubleSided":true,
			"name":"House1",
			"pbrMetallicRoughness":{
				"baseColorTexture":{
					"index":0
				},
				"metallicFactor":0,
				"roughnessFactor":0.5
			}
		}
	],
	"meshes":[
		{
			"name":"Cube.001",
			"primitives":[
				{
					"attributes":{
						"POSITION":0,
						"NORMAL":1,
						"TEXCOORD_0":2
					},
					"indices":3,
					"material":0
				}
			]
		}
	],
	"textures":[
		{
			"sampler":0,
			"source":0
		}
	],
	"images":[
		{
			"bufferView":4,
			"mimeType":"image/png",
			"name":"House1",
			"uri":"House1.png"
		}
	],
	"accessors":[
		{
			"bufferView":0,
			"componentType":5126,
			"count":1324,
			"max":[
				2,
				3.3999993801116943,
				2
			],
			"min":[
				-2,
				1.4901161193847656e-08,
				-2.0000007152557373
			],
			"type":"VEC3"
		},
		{
			"bufferView":1,
			"componentType":5126,
			"count":1324,
			"type":"VEC3"
		},
		{
			"bufferView":2,
			"componentType":5126,
			"count":1324,
			"type":"VEC2"
		},
		{
			"bufferView":3,
			"componentType":5123,
			"count":2058,
			"type":"SCALAR"
		}
	],
	"bufferViews":[
		{
			"buffer":0,
			"byteLength":15888,
			"byteOffset":0,
			"target":34962
		},
		{
			"buffer":0,
			"byteLength":15888,
			"byteOffset":15888,
			"target":34962
		},
		{
			"buffer":0,
			"byteLength":10592,
			"byteOffset":31776,
			"target":34962
		},
		{
			"buffer":0,
			"byteLength":4116,
			"byteOffset":42368,
			"target":34963
		},
		{
			"buffer":0,
			"byteLength":39431,
			"byteOffset":46484
		}
	],
	"samplers":[
		{
			"magFilter":9729,
			"minFilter":9987
		}
	],
	"buffers":[
		{
			"byteLength":85916,
			"uri":"data:application/octet-stream;base64,"
		}
	]
}
