{
	"asset":{
		"generator":"Khronos glTF Blender I/O v3.6.28",
		"version":"2.0"
	},
	"scene":0,
	"scenes":[
		{
			"name":"Scene",
			"nodes":[
				0,
				1
			]
		}
	],
	"nodes":[
		{
			"mesh":0,
			"name":"Circle"
		},
		{
			"name":"Cube",
			"scale":[
				0.699999988079071,
				0.699999988079071,
				0.699999988079071
			]
		}
	],
	"materials":[
		{
			"doubleSided":true,
			"name":"Crank",
			"pbrMetallicRoughness":{
				"baseColorTexture":{
					"index":0
				},
				"metallicFactor":0,
				"roughnessFactor":0.5
			}
		}
	],
	"meshes":[
		{
			"name":"Circle.001",
			"primitives":[
				{
					"attributes":{
						"POSITION":0,
						"NORMAL":1,
						"TEXCOORD_0":2
					},
					"indices":3,
					"material":0
				}
			]
		}
	],
	"textures":[
		{
			"sampler":0,
			"source":0
		}
	],
	"images":[
		{
			"bufferView":4,
			"mimeType":"image/png",
			"name":"CrankBase",
			"uri":"CrankBase.png"
		}
	],
	"accessors":[
		{
			"bufferView":0,
			"componentType":5126,
			"count":370,
			"max":[
				0.6000000238418579,
				0.5,
				0.6000000238418579
			],
			"min":[
				-0.6000000238418579,
				0,
				-0.6000000238418579
			],
			"type":"VEC3"
		},
		{
			"bufferView":1,
			"componentType":5126,
			"count":370,
			"type":"VEC3"
		},
		{
			"bufferView":2,
			"componentType":5126,
			"count":370,
			"type":"VEC2"
		},
		{
			"bufferView":3,
			"componentType":5123,
			"count":624,
			"type":"SCALAR"
		}
	],
	"bufferViews":[
		{
			"buffer":0,
			"byteLength":4440,
			"byteOffset":0,
			"target":34962
		},
		{
			"buffer":0,
			"byteLength":4440,
			"byteOffset":4440,
			"target":34962
		},
		{
			"buffer":0,
			"byteLength":2960,
			"byteOffset":8880,
			"target":34962
		},
		{
			"buffer":0,
			"byteLength":1248,
			"byteOffset":11840,
			"target":34963
		},
		{
			"buffer":0,
			"byteLength":136,
			"byteOffset":13088
		}
	],
	"samplers":[
		{
			"magFilter":9729,
			"minFilter":9987
		}
	],
	"buffers":[
		{
			"byteLength":13224,
			"uri":"data:application/octet-stream;base64,"
		}
	]
}
