{
	"asset":{
		"generator":"Khronos glTF Blender I/O v3.6.28",
		"version":"2.0"
	},
	"scene":0,
	"scenes":[
		{
			"name":"Scene",
			"nodes":[
				0
			]
		}
	],
	"nodes":[
		{
			"mesh":0,
			"name":"Cube.003"
		}
	],
	"materials":[
		{
			"doubleSided":true,
			"name":"House1",
			"pbrMetallicRoughness":{
				"baseColorTexture":{
					"index":0
				},
				"metallicFactor":0,
				"roughnessFactor":0.5
			}
		}
	],
	"meshes":[
		{
			"name":"Cube.004",
			"primitives":[
				{
					"attributes":{
						"POSITION":0,
						"NORMAL":1,
						"TEXCOORD_0":2
					},
					"indices":3,
					"material":0
				}
			]
		}
	],
	"textures":[
		{
			"sampler":0,
			"source":0
		}
	],
	"images":[
		{
			"bufferView":4,
			"mimeType":"image/png",
			"name":"House1",
			"uri":"House1.png"
		}
	],
	"accessors":[
		{
			"bufferView":0,
			"componentType":5126,
			"count":3148,
			"max":[
				2.5,
				5.399999618530273,
				6.900003910064697
			],
			"min":[
				-2.5,
				1.4901161193847656e-08,
				-4.000000953674316
			],
			"type":"VEC3"
		},
		{
			"bufferView":1,
			"componentType":5126,
			"count":3148,
			"type":"VEC3"
		},
		{
			"bufferView":2,
			"componentType":5126,
			"count":3148,
			"type":"VEC2"
		},
		{
			"bufferView":3,
			"componentType":5123,
			"count":4902,
			"type":"SCALAR"
		}
	],
	"bufferViews":[
		{
			"buffer":0,
			"byteLength":37776,
			"byteOffset":0,
			"target":34962
		},
		{
			"buffer":0,
			"byteLength":37776,
			"byteOffset":37776,
			"target":34962
		},
		{
			"buffer":0,
			"byteLength":25184,
			"byteOffset":75552,
			"target":34962
		},
		{
			"buffer":0,
			"byteLength":9804,
			"byteOffset":100736,
			"target":34963
		},
		{
			"buffer":0,
			"byteLength":39431,
			"byteOffset":110540
		}
	],
	"samplers":[
		{
			"magFilter":9729,
			"minFilter":9987
		}
	],
	"buffers":[
		{
			"byteLength":149972,
			"uri":"data:application/octet-stream;base64,"
		}
	]
}
